#!OML:ASF H:\Terrain\Patient Classification 1\Walking\liu\liu.ASF
:FULLY-SPECIFIED
:DEGREES
47
root 8.38687 16.1529 -26.0467 6.91853 -3.81 -5.76471
lowerback -6.90159 2.79198 2.23254
upperback -0.177654 3.4139 3.43851
thorax 3.60396 1.70725 2.64521
lowerneck -21.1269 -6.279 -14.5365
upperneck 18.8293 -7.40545 13.8929
head 10.6418 -2.89813 6.30881
rclavicle -1.3418e-014 1.86858e-014
rhumerus -30.4342 22.0303 -85.7899
rradius 47.2669
rwrist -23.116
rhand -31.8292 -24.3724
rfingers 7.12502
rthumb -5.08382 -54.2915
lclavicle -1.3418e-014 1.86858e-014
lhumerus -46.8105 -2.48293 88.425
lradius 27.0614
lwrist 4.82442
lhand -9.93612 -22.6164
lfingers 7.12502
lthumb 16.0452 6.73926
rfemur 11.2039 3.64983 32.3952
rtibia -2.22639e-014
rfoot -10.4763 3.77445
rtoes -8.23131
lfemur -40.3335 -4.40405 -7.38341
ltibia 16.9388
lfoot -17.882 21.5715
ltoes -6.80887
48
root 8.40222 16.1457 -25.9115 6.99767 -4.10014 -5.86964
lowerback -7.1242 2.88042 2.24539
upperback -0.036372 3.51303 3.48046
thorax 3.87109 1.75544 2.71105
lowerneck -21.3183 -6.32855 -14.7622
upperneck 18.7476 -7.42695 14.1379
head 10.6732 -2.89073 6.43538
rclavicle -1.98785e-016 3.57812e-014
rhumerus -30.3664 21.9638 -85.8435
rradius 47.4042
rwrist -23.5022
rhand -31.5908 -24.8379
rfingers 7.12502
rthumb -4.85367 -54.7623
lclavicle -1.98785e-016 3.57812e-014
lhumerus -46.5084 -2.73037 88.8525
lradius 27.0444
lwrist 4.93577
lhand -9.46265 -22.5772
lfingers 7.12502
lthumb 16.5011 6.74113
rfemur 11.6512 3.75916 32.3967
rtibia 3.49861e-014
rfoot -10.5407 3.9797
rtoes -9.78968
lfemur -40.2069 -4.03059 -7.42848
ltibia 16.7765
lfoot -17.726 20.9607
ltoes -5.12968
49
root 8.42316 16.1289 -25.7716 7.02627 -4.2815 -5.90388
lowerback -7.2503 2.9422 2.30731
upperback -0.00872399 3.58338 3.46866
thorax 3.97326 1.79112 2.68068
lowerneck -21.2835 -6.34142 -14.9368
upperneck 18.8135 -7.44211 14.3073
head 10.709 -2.89356 6.53169
rclavicle -2.34317e-014 -2.14687e-014
rhumerus -30.6518 21.9923 -86.0428
rradius 47.5883
rwrist -23.6813
rhand -31.6337 -25.7426
rfingers 7.12502
rthumb -4.89506 -55.6661
lclavicle -2.34317e-014 -2.14687e-014
lhumerus -46.5721 -3.21419 89.456
lradius 27.2223
lwrist 5.60397
lhand -9.1999 -22.8087
lfingers 7.12502
lthumb 16.754 6.48839
rfemur 12.1811 3.75349 32.285
rtibia 4.13472e-014
rfoot -10.459 4.2811
rtoes -10.1168
lfemur -40.055 -4.14961 -7.33522
ltibia 16.811
lfoot -18.5004 20.5808
ltoes -4.11062
50
root 8.44437 16.1122 -25.6338 7.17741 -4.34265 -5.88901
lowerback -7.22017 2.92206 2.30941
upperback -0.168169 3.5683 3.35883
thorax 3.79797 1.78497 2.55504
lowerneck -21.3096 -6.28602 -14.5382
upperneck 18.9303 -7.45457 14.1094
head 10.7317 -2.89043 6.38852
rclavicle -1.98785e-015 -2.78299e-015
rhumerus -31.1315 21.9584 -86.4757
rradius 47.5642
rwrist -23.5876
rhand -31.1186 -25.1436
rfingers 7.12502
rthumb -4.39762 -55.078
lclavicle -1.98785e-015 -2.78299e-015
lhumerus -46.809 -3.75775 89.8392
lradius 27.3317
lwrist 6.15966
lhand -9.34835 -22.6151
lfingers 7.12502
lthumb 16.6111 6.69405
rfemur 12.6055 3.65936 32.0856
rtibia 1.90833e-014
rfoot -10.4795 4.51821
rtoes -9.6113
lfemur -40.2043 -3.59855 -7.82247
ltibia 17.0682
lfoot -18.3397 19.9591
ltoes -6.62151
51
root 8.46405 16.1022 -25.4902 7.32529 -4.56758 -5.88853
lowerback -7.316 2.89413 2.22545
upperback -0.176871 3.53579 3.31117
thorax 3.84128 1.7675 2.55443
lowerneck -21.69 -6.1714 -14.0753
upperneck 19.0392 -7.35915 13.9289
head 10.7984 -2.8182 6.25886
rclavicle 3.97569e-015 -1.19271e-015
rhumerus -31.336 22.0899 -86.8466
rradius 47.5036
rwrist -23.6596
rhand -30.9069 -24.9635
rfingers 7.12502
rthumb -4.19321 -54.9019
lclavicle 3.97569e-015 -1.19271e-015
lhumerus -46.7132 -3.84654 89.9873
lradius 27.2488
lwrist 6.14188
lhand -9.22247 -22.5419
lfingers 7.12502
lthumb 16.7323 6.75702
rfemur 13.0468 3.725 31.8864
rtibia -2.22639e-014
rfoot -10.4731 4.75416
rtoes -9.11025
lfemur -40.3048 -1.86202 -9.0396
ltibia 17.4378
lfoot -16.8979 18.6252
ltoes -9.47931
52
root 8.48314 16.107 -25.3385 7.364 -5.0381 -5.94844
lowerback -7.45172 2.96567 2.2059
upperback -0.164078 3.62351 3.37092
thorax 3.9234 1.8098 2.64565
lowerneck -21.6582 -6.09689 -14.1888
upperneck 19.036 -7.25039 14.051
head 10.7839 -2.76478 6.34459
rclavicle 2.6662e-014 7.15625e-015
rhumerus -31.736 22.322 -87.1092
rradius 47.5183
rwrist -23.6896
rhand -31.9121 -26.6689
rfingers 7.12502
rthumb -5.1639 -56.5859
lclavicle 2.6662e-014 7.15625e-015
lhumerus -46.8052 -3.75349 90.2498
lradius 27.3047
lwrist 5.9698
lhand -8.70468 -22.9533
lfingers 7.12502
lthumb 17.2307 6.30279
rfemur 13.6176 4.01483 31.7201
rtibia -1.59028e-014
rfoot -10.1196 5.12992
rtoes -7.76475
lfemur -40.2053 -0.110169 -10.1031
ltibia 18.017
lfoot -15.6225 17.4554
ltoes -10.2677
